<svg version="1.0" xmlns="http://www.w3.org/2000/svg" width="500" height="500" viewBox="0 0 500 500"
  preserveAspectRatio="xMidYMid meet">


  <rect fill="#90a955" rx="500" height="380" width="380" x="30" y="40" />

  <g transform="translate(0,1024) scale(0.1,-0.1)" fill="currentColor" stroke="none">
    <!-- corps -->
    <path d="M3510 9800 c-292 -41 -580 -130 -855 -265 -188 -92 -352 -197 -522
-334 l-113 -90 0 33 c0 18 13 60 30 92 16 32 28 60 26 61 -2 2 -45 -40 -96
-94 -87 -92 -150 -181 -150 -212 0 -7 -14 -29 -31 -49 -17 -19 -44 -63 -59
-96 -15 -34 -34 -67 -43 -75 -25 -20 -21 -28 16 -34 17 -3 39 -8 48 -12 11 -4
18 0 21 13 3 11 17 28 32 37 38 25 72 8 152 -77 107 -114 175 -229 224 -379
38 -114 40 -187 8 -223 -30 -32 -248 -179 -248 -166 0 5 9 14 20 20 21 11 21
11 -5 41 -14 17 -25 37 -25 45 0 17 39 34 78 35 15 0 -23 17 -88 39 -114 38
-133 52 -33 26 l52 -14 -35 50 c-19 28 -34 58 -34 69 0 23 37 49 69 49 43 0
17 10 -110 41 -72 18 -138 28 -156 25 -18 -2 -33 -1 -33 4 0 10 -96 50 -225
94 -109 38 -107 44 6 21 144 -30 175 -39 292 -82 65 -23 123 -43 128 -43 6 0
-9 15 -32 33 -61 47 -86 82 -70 101 7 9 29 18 48 22 49 9 30 17 -102 42 -118
23 -195 30 -212 19 -6 -4 -13 -2 -15 5 -3 7 -29 20 -59 30 l-54 18 70 -5 c66
-5 216 -29 260 -42 15 -5 13 2 -13 32 -39 44 -52 74 -52 120 0 28 7 39 38 61
l37 26 -84 -6 c-46 -4 -149 -18 -230 -32 -220 -38 -241 -39 -140 -5 96 33 262
61 365 61 116 0 145 17 73 40 -61 20 -89 46 -89 82 0 43 44 80 142 120 75 30
79 33 48 36 -41 4 -163 -22 -255 -55 -79 -29 -276 -125 -378 -186 -37 -22 -70
-38 -72 -35 -2 2 28 30 68 61 96 77 265 159 407 199 63 18 117 34 119 35 3 2
-1 9 -7 15 -17 17 -15 80 4 106 17 25 107 88 172 121 24 12 42 24 40 27 -9 8
-183 -27 -257 -53 -42 -14 -109 -41 -150 -59 -41 -19 -77 -31 -80 -28 -8 9
101 106 181 161 38 26 66 48 64 50 -6 6 -123 -44 -191 -82 -185 -103 -397
-311 -559 -548 l-40 -58 -15 28 c-8 15 -18 62 -21 103 l-6 75 -23 -70 c-20
-57 -25 -94 -27 -202 -1 -72 -7 -140 -13 -151 -26 -50 -8 -104 40 -121 39 -13
44 -10 29 18 -8 16 -8 28 2 48 18 37 56 45 106 23 45 -20 122 -86 122 -104 0
-21 -59 -103 -87 -121 l-26 -17 6 31 7 32 -58 -47 c-31 -26 -77 -66 -101 -88
l-43 -41 7 45 7 45 -22 -20 c-12 -11 -38 -42 -58 -69 -31 -42 -37 -46 -47 -32
-14 19 -25 11 -25 -18 0 -12 -14 -41 -30 -66 -21 -32 -30 -57 -30 -87 0 -37
-4 -44 -30 -58 -32 -17 -50 -13 -50 11 0 58 -56 -58 -65 -137 -7 -56 -7 -56
30 -87 21 -17 46 -33 56 -35 17 -5 18 -1 13 34 -4 21 -5 39 -2 39 2 0 19 -11
38 -25 19 -14 37 -25 40 -25 3 0 4 16 2 37 -4 28 -1 35 9 31 54 -22 52 -23 39
2 -15 27 2 52 22 32 18 -18 27 -15 21 8 -5 21 3 25 31 14 10 -4 16 -18 16 -40
0 -25 -11 -45 -44 -83 -24 -27 -59 -77 -77 -111 -39 -74 -69 -97 -168 -126
-55 -16 -71 -24 -58 -29 17 -7 16 -9 -8 -25 -29 -19 -65 -67 -65 -88 0 -7 13
2 30 21 29 34 59 50 164 88 67 24 126 73 161 134 14 23 35 51 48 64 l24 22 17
-26 c20 -31 17 -37 -19 -37 -28 0 -31 -8 -13 -26 9 -9 7 -12 -12 -12 -24 -1
-24 -2 11 -33 20 -18 36 -39 34 -48 -1 -8 5 -21 16 -27 15 -9 19 -8 24 9 5 16
10 18 20 9 11 -9 16 -6 21 14 7 30 29 33 57 9 19 -17 20 -17 15 2 -3 11 -7 27
-9 35 -3 9 5 16 21 18 23 4 23 5 -10 20 l-35 16 28 4 c28 3 28 4 11 23 -17 18
-16 19 24 19 38 0 42 2 42 26 0 38 32 27 46 -15 l11 -35 18 27 c12 19 16 38
12 63 -6 35 -5 36 13 19 10 -9 27 -33 37 -53 l18 -37 3 38 c2 22 -1 52 -7 68
-15 42 11 50 48 15 l28 -27 -4 25 c-8 41 22 22 47 -28 31 -65 27 -131 -11
-192 -29 -44 -67 -151 -84 -230 -6 -32 5 -119 25 -193 6 -24 28 -61 50 -85 22
-23 48 -62 58 -87 l20 -44 7 38 c6 31 10 36 22 25 8 -6 23 -29 34 -49 10 -21
27 -42 36 -48 15 -8 2 -25 -87 -118 -76 -78 -114 -126 -137 -174 -18 -37 -33
-71 -33 -76 0 -6 -15 -13 -34 -16 -23 -4 -51 -22 -85 -54 -27 -26 -61 -58 -75
-70 -47 -40 -31 -157 26 -197 32 -23 42 -20 24 6 -23 33 -21 79 4 85 11 3 20
14 20 24 0 11 7 19 15 19 10 0 15 -11 15 -35 0 -72 76 -197 141 -231 39 -20
46 -18 22 9 -29 32 -49 78 -45 106 l4 25 16 -21 c23 -30 127 -42 157 -19 20
15 20 15 -2 16 -31 0 -73 21 -73 36 0 7 -11 26 -25 42 -14 17 -25 32 -25 35 0
3 30 -10 68 -30 61 -32 72 -35 132 -31 36 3 79 12 95 21 l30 16 -45 1 c-72 2
-101 9 -166 41 -72 34 -95 55 -70 65 9 3 16 14 16 24 0 28 14 32 53 15 38 -16
52 -42 42 -77 -6 -21 -4 -21 19 5 28 30 35 82 16 118 -16 28 -4 24 85 -32 l82
-52 -5 -46 c-3 -40 0 -50 22 -72 30 -30 201 -99 245 -99 33 0 77 31 86 61 6
19 12 21 51 15 24 -3 64 -9 89 -12 37 -5 45 -4 45 9 0 27 -28 46 -78 52 -74
10 -82 14 -82 41 0 40 -38 68 -152 112 -120 47 -136 50 -169 23 l-23 -19 32
-36 c51 -58 37 -53 -33 12 -35 34 -103 82 -150 108 -119 67 -116 75 45 124
133 41 176 63 195 100 l16 30 27 -19 c15 -10 41 -22 57 -25 30 -6 30 -6 9 11
-35 30 -53 66 -47 96 l6 28 22 -21 c13 -12 43 -24 67 -27 23 -4 63 -17 87 -30
28 -14 61 -23 90 -23 l46 0 -30 24 c-36 29 -28 41 26 39 22 -1 50 2 62 6 20 8
18 10 -20 21 l-42 13 22 18 22 18 -37 1 c-63 0 -49 23 42 67 36 18 74 39 85
47 18 14 14 15 -55 16 -66 0 -72 2 -55 14 11 7 52 25 91 39 l71 26 60 -62 c34
-34 73 -81 87 -104 27 -44 69 -73 107 -73 11 0 55 28 98 63 92 76 135 107 151
107 18 0 70 -121 83 -196 12 -61 16 -69 37 -72 31 -5 100 -59 100 -78 0 -17
66 -48 120 -58 l35 -6 -27 21 c-39 29 -35 39 16 39 32 0 50 6 71 26 31 28 28
42 -5 24 -30 -16 -37 -4 -13 23 36 39 34 46 -6 26 -63 -30 -101 -20 -61 16 28
26 25 32 -15 27 -20 -2 -35 0 -35 6 0 6 -3 17 -6 26 -5 12 0 16 22 16 20 0 41
14 79 53 63 64 136 103 162 87 30 -19 71 -83 106 -166 33 -76 41 -86 81 -99
17 -5 18 -7 4 -21 -13 -13 -18 -13 -44 2 -28 16 -31 16 -57 -1 -15 -9 -30 -29
-33 -44 -9 -38 -31 -52 -59 -39 -19 9 -31 6 -61 -13 -85 -52 -128 -109 -92
-121 23 -8 -60 -49 -86 -42 -36 9 -205 -63 -217 -93 -10 -28 -53 -40 -84 -23
-32 17 -91 5 -121 -25 -13 -13 -26 -19 -29 -14 -10 15 -65 11 -71 -6 -10 -26
-60 -18 -92 15 -29 29 -34 30 -116 30 -95 0 -131 -10 -141 -38 -4 -16 -17 -21
-55 -24 -35 -2 -50 1 -50 9 0 15 -43 28 -65 19 -23 -9 -18 -26 13 -36 15 -6
43 -19 63 -30 20 -11 48 -20 63 -20 16 0 26 -6 26 -14 0 -33 41 -46 142 -46
85 0 101 3 118 20 11 11 20 26 20 34 0 20 62 28 77 9 14 -19 73 -8 73 13 0 19
16 18 24 -1 11 -30 122 -6 136 30 11 28 77 50 98 32 8 -7 25 -10 36 -8 32 5
77 31 72 40 -3 4 5 6 17 4 28 -5 87 32 94 57 8 32 65 61 102 54 26 -6 42 0 87
31 60 42 78 66 69 95 -6 19 30 54 46 44 12 -7 44 12 115 67 57 45 63 48 95 39
60 -18 82 -12 132 34 34 32 47 51 47 71 0 27 0 27 -17 7 -20 -22 -69 -40 -95
-34 -29 6 -21 18 22 35 26 10 40 22 40 34 0 10 7 27 15 37 8 11 15 31 15 44 0
30 43 72 74 72 24 0 48 23 90 85 32 48 35 71 7 53 -15 -9 -22 -8 -36 5 -23 23
-25 23 -73 -26 -31 -31 -42 -51 -42 -73 0 -37 -32 -70 -65 -66 -15 2 -39 -11
-71 -39 l-48 -42 -27 33 -27 32 -4 -28 c-2 -15 -8 -29 -15 -31 -7 -3 -9 3 -6
17 4 16 -6 32 -46 68 -28 26 -67 76 -86 111 -32 58 -34 65 -20 81 21 23 19 33
-6 27 -11 -3 -33 2 -48 10 -39 23 -72 11 -101 -37 -27 -44 -64 -61 -85 -39 -7
8 -24 40 -38 71 l-26 58 102 51 c139 69 241 131 345 208 82 62 256 226 334
317 20 23 55 55 79 72 24 16 62 49 84 72 l40 41 -53 -20 -53 -21 47 67 c26 38
68 89 93 116 46 48 46 58 1 32 -14 -8 -29 -14 -33 -15 -5 0 14 42 42 94 28 51
51 96 51 100 0 4 -10 -2 -22 -14 -12 -11 -23 -18 -26 -16 -2 3 3 39 12 81 18
85 21 138 7 117 -5 -9 -10 1 -15 30 -6 35 -9 40 -17 26 -19 -34 -24 -18 -21
66 2 48 -1 92 -7 103 -10 17 -10 17 -11 -2 -1 -32 -17 -1 -42 80 -19 60 -23
66 -28 45 l-7 -25 -12 30 c-7 17 -11 49 -9 72 3 39 2 41 -14 26 -17 -15 -18
-14 -18 8 0 29 34 87 55 95 8 4 15 15 15 25 0 10 15 35 32 55 31 35 32 37 8
29 -14 -4 -36 -15 -50 -25 -14 -9 -29 -16 -35 -14 -11 4 -55 -55 -55 -74 0 -7
-4 -12 -10 -12 -5 0 -10 12 -10 28 l-1 27 -14 -25 c-17 -31 -19 -70 -4 -121 7
-20 8 -46 5 -56 -7 -15 -10 -13 -26 17 l-19 35 -1 -45 c0 -47 14 -75 63 -122
43 -42 34 -73 -14 -47 -18 9 -19 8 -10 -9 6 -11 26 -33 45 -49 59 -53 74 -98
29 -87 -28 7 -28 6 10 -33 30 -31 37 -46 37 -78 l0 -38 -25 23 c-32 30 -32 12
0 -51 25 -50 25 -52 -1 -119 -5 -10 -12 -3 -24 24 -21 46 -29 32 -29 -55 0
-99 -34 -143 -55 -71 -15 53 -26 36 -26 -41 0 -47 -5 -80 -14 -92 -13 -19 -15
-17 -33 25 l-18 45 -6 -55 c-3 -31 -14 -73 -24 -94 l-19 -39 -17 39 c-18 41
-18 41 -38 -33 -6 -22 -20 -52 -30 -65 -22 -27 -22 -27 -42 72 l-13 65 -11
-60 c-13 -71 -44 -143 -72 -168 -20 -17 -20 -17 -27 33 -7 55 -20 65 -29 23
-3 -16 -24 -56 -46 -91 -40 -61 -61 -72 -61 -32 0 11 -5 43 -12 72 l-11 53
-12 -45 c-17 -64 -50 -125 -82 -150 l-28 -22 -3 74 -3 73 -18 -41 c-17 -38
-72 -93 -96 -97 -6 -1 -9 27 -8 68 2 58 0 65 -8 38 -11 -37 -99 -128 -109
-113 -4 7 -26 2 -61 -15 -53 -24 -89 -32 -89 -18 0 4 15 22 33 41 37 38 31 37
-80 -14 -82 -38 -123 -50 -123 -37 0 12 31 55 50 70 8 7 10 13 4 13 -25 0 -82
-26 -136 -62 -31 -21 -59 -38 -63 -38 -3 0 4 19 16 41 l21 42 -34 -21 c-65
-39 -139 -74 -145 -69 -3 4 2 24 11 47 9 22 12 40 7 40 -6 0 -13 -5 -16 -10
-9 -14 -106 -63 -112 -56 -12 12 63 97 102 116 51 25 61 25 108 0 31 -17 37
-18 37 -5 0 32 32 77 65 91 72 30 172 12 242 -44 l38 -30 -3 74 c-3 57 0 80
12 99 34 51 114 22 195 -70 28 -32 32 -34 26 -14 -12 40 -82 159 -147 248 -51
70 -63 81 -69 65 -3 -10 -5 -22 -2 -26 2 -5 0 -8 -4 -8 -5 0 -16 22 -26 49
-19 53 -93 171 -108 171 -5 0 -9 -11 -9 -25 0 -42 -15 -28 -34 32 -19 59 -65
112 -201 232 -48 42 -53 49 -24 33 20 -11 49 -28 65 -38 29 -18 29 -18 14 1
-17 22 45 -11 142 -77 130 -87 234 -227 329 -439 l54 -119 3 74 c3 86 19 107
92 127 63 16 114 0 195 -61 74 -56 72 -45 -17 67 -63 80 -256 283 -269 283 -4
0 -9 -8 -12 -17 -3 -14 -7 -11 -16 12 -26 63 -96 108 -116 75 -13 -20 -25 -9
-25 23 0 20 -7 40 -17 49 -24 21 -158 87 -261 129 -46 18 -79 35 -73 37 9 3
108 -21 176 -43 14 -4 13 -2 -5 9 -72 44 95 -6 216 -65 146 -71 233 -157 343
-342 30 -48 55 -87 56 -85 2 2 -3 35 -11 73 -7 39 -12 111 -10 162 2 75 8 101
30 147 15 31 40 65 56 76 52 37 158 53 320 47 135 -5 142 -4 105 10 -47 17
-237 61 -420 98 -71 14 -139 28 -150 31 -20 4 -20 4 0 -5 11 -6 48 -20 83 -32
34 -12 61 -24 59 -26 -2 -2 -46 5 -98 16 -128 26 -383 55 -425 48 -21 -4 -34
-2 -34 5 0 12 -451 5 -500 -7 -24 -6 -24 -6 -6 9 35 29 156 48 326 53 119 4
171 9 188 19 21 14 22 13 22 -16 l0 -30 40 16 c33 14 67 16 183 11 149 -5 249
-22 442 -76 61 -17 114 -31 118 -31 5 0 -11 15 -34 33 -57 43 -92 109 -85 162
11 75 112 145 261 180 39 9 77 19 85 22 25 9 -45 21 -206 34 -145 12 -252 8
-544 -17 -39 -3 -49 -2 -35 5 37 18 -8 12 -105 -14 -130 -35 -143 -45 -138
-102 l3 -46 -41 48 -42 47 -128 -30 c-71 -17 -138 -30 -149 -30 -21 -1 -149
-52 -290 -116 l-80 -36 34 29 c70 61 240 135 481 211 74 23 141 47 147 52 10
8 16 3 26 -20 11 -28 14 -29 32 -16 47 35 222 74 531 118 233 34 326 41 562
41 111 0 202 1 202 3 0 5 -120 55 -190 78 -41 13 -137 38 -214 55 -195 42
-306 82 -306 109 0 12 131 64 247 99 117 34 343 77 433 81 24 2 24 2 -5 12
-40 13 -452 19 -535 8z m-210 -124 c-219 -74 -337 -120 -367 -141 -16 -11 -23
-26 -23 -47 l0 -32 -28 27 -27 26 -87 -38 c-48 -21 -103 -49 -123 -61 -32 -20
-35 -26 -35 -67 l0 -45 -37 28 -36 28 -106 -54 c-151 -77 -294 -176 -383 -265
-43 -43 -78 -75 -78 -71 0 4 14 28 31 52 35 51 124 128 254 219 87 61 312 205
320 205 2 0 5 -7 7 -15 2 -11 14 -6 48 21 116 93 453 222 715 274 157 32 145
21 -45 -44z m-2104 -568 c-7 -18 -11 -39 -8 -47 3 -10 -2 -12 -19 -8 -21 5
-35 -8 -111 -105 -47 -61 -108 -149 -134 -196 -51 -90 -67 -97 -36 -14 23 60
99 171 187 272 36 41 65 80 65 87 0 7 7 10 16 6 9 -3 21 3 30 16 22 30 25 26
10 -11z m751 -94 c-19 -38 -37 -81 -41 -96 -6 -25 -8 -26 -31 -16 -44 20 -73
-23 -39 -57 9 -9 15 -17 13 -18 -2 -2 -21 -10 -43 -20 -21 -10 -40 -27 -43
-37 -6 -21 -18 -26 -27 -11 -3 5 12 48 33 95 30 65 45 87 64 91 18 5 26 17 36
53 6 26 16 54 21 62 8 13 11 12 22 -3 13 -17 15 -17 37 7 14 14 26 24 28 22 3
-2 -11 -35 -30 -72z m1267 17 c37 -10 73 -24 78 -29 10 -10 -23 -4 -172 32
l-55 14 40 1 c22 1 71 -8 109 -18z m770 -258 c15 -18 24 -33 19 -33 -12 0 -57
49 -72 77 -17 33 -12 41 7 13 9 -13 30 -39 46 -57z m-1992 46 c61 -23 89 -44
46 -34 -36 9 -35 3 6 -43 19 -21 62 -78 95 -127 34 -49 61 -86 61 -82 0 4 -11
36 -25 73 -14 36 -25 69 -25 73 0 3 22 -32 48 -79 26 -47 70 -119 98 -160 94
-138 123 -216 46 -123 -50 59 -72 81 -72 68 0 -9 57 -117 79 -150 29 -42 26
-50 -9 -25 -16 12 -30 19 -30 15 0 -13 23 -51 48 -77 l26 -28 -26 -27 c-23
-25 -88 -142 -88 -159 0 -4 19 16 42 45 23 28 45 51 50 51 8 0 -56 -109 -95
-161 -17 -24 -87 -79 -100 -79 -2 0 10 27 26 60 17 33 28 62 26 64 -2 2 -52
-36 -111 -85 -103 -85 -108 -92 -123 -147 -22 -81 -51 -139 -75 -152 -20 -11
-20 -10 2 31 11 23 23 64 24 93 3 35 1 43 -4 26 -8 -23 -9 -22 -15 15 -9 56 5
108 46 170 32 48 113 125 132 125 4 0 -7 -16 -24 -35 -31 -35 -53 -73 -71
-120 -7 -18 6 -9 48 33 31 32 94 84 139 115 95 67 137 112 127 136 -4 9 -29
79 -55 155 -99 292 -238 505 -346 532 -37 10 -27 25 19 33 4 0 31 -8 60 -20z
m-1162 -184 c11 -21 10 -28 -14 -55 -18 -22 -26 -43 -26 -71 0 -21 -4 -39 -10
-39 -5 0 -10 1 -10 3 0 1 -4 16 -9 34 -7 22 -5 39 5 58 11 21 13 48 8 108 -5
60 -4 78 4 73 7 -4 12 0 13 11 1 10 7 -8 14 -40 7 -33 18 -69 25 -82z m2205
40 c49 -28 108 -76 102 -81 -2 -3 -44 19 -93 48 -50 29 -109 62 -132 73 -23
11 -42 23 -42 27 0 9 114 -36 165 -67z m-1951 -184 c31 -23 56 -45 56 -50 0
-4 -9 -16 -19 -25 -18 -17 -20 -16 -43 23 -14 23 -27 39 -29 36 -3 -3 -20 11
-39 30 l-33 34 26 -3 c14 -1 51 -21 81 -45z m2931 -94 c-9 -117 -79 -277 -120
-277 -18 0 -19 11 -3 61 8 29 14 36 23 29 26 -22 84 155 86 263 1 48 1 50 10
22 6 -16 8 -61 4 -98z m-2849 -41 c-9 -23 -25 -52 -35 -65 l-18 -24 -2 55 c-1
42 4 59 18 72 11 10 25 32 33 49 l13 32 3 -39 c2 -22 -4 -58 -12 -80z m-99
-68 c-27 -63 -75 -116 -157 -172 -68 -47 -80 -52 -75 -33 6 21 6 21 -15 -3
-22 -26 -54 -90 -48 -96 2 -2 21 8 41 21 28 20 35 22 30 9 -5 -15 -2 -16 26
-11 44 9 31 -10 -25 -34 -50 -23 -69 -43 -30 -33 17 4 39 -1 65 -15 25 -12 38
-15 35 -8 -3 9 8 14 36 15 23 2 53 7 67 13 40 15 38 4 -4 -22 -28 -17 -50 -23
-83 -22 -104 6 -148 5 -208 -2 -58 -7 -61 -9 -47 -25 21 -23 19 -33 -4 -20
-32 16 -58 12 -88 -16 -26 -23 -26 -25 -5 -19 26 7 28 2 6 -19 -10 -10 -33
-16 -63 -16 -39 0 -51 -4 -63 -22 -13 -19 -18 -21 -30 -10 -12 9 -13 23 -7 64
8 51 39 103 39 65 0 -21 13 -22 29 -3 7 8 26 18 42 21 22 5 29 12 29 29 0 13
9 31 19 40 10 10 24 37 30 60 6 24 20 54 32 67 l21 24 -5 -23 c-9 -40 10 -13
21 30 6 24 18 52 27 63 15 19 15 18 9 -20 -3 -22 -8 -49 -11 -59 -3 -11 22 13
55 51 34 39 75 81 92 93 l30 22 -25 -48 c-14 -26 -34 -53 -45 -61 -10 -7 -29
-28 -42 -46 l-23 -32 30 19 c17 10 52 34 79 53 31 22 47 29 43 19 -11 -27 26
-2 92 62 51 50 60 65 72 117 l14 60 3 -47 c2 -25 -3 -61 -11 -80z m334 73
c-28 -39 -105 -75 -161 -76 -25 0 -46 5 -48 10 -1 6 37 24 86 40 49 17 100 38
113 47 32 21 35 15 10 -21z m-366 -24 c-8 -32 -46 -67 -110 -102 l-50 -27 50
45 c28 26 53 46 56 47 4 0 17 15 30 34 27 39 33 40 24 3z m196 18 c-1 -15 -24
-12 -29 3 -3 9 2 13 12 10 10 -1 17 -7 17 -13z m508 -62 c-60 -81 -99 -104
-189 -113 l-65 -7 62 -2 c34 0 74 4 89 9 24 10 26 9 14 -5 -23 -28 -88 -55
-131 -55 -57 0 -165 30 -147 41 9 6 3 9 -17 10 l-30 1 30 9 c17 5 53 7 80 5
l50 -5 -45 16 c-72 27 -210 22 -285 -8 -33 -14 -59 -30 -58 -35 1 -5 -7 -10
-18 -10 -10 0 -19 5 -19 10 0 5 -14 -3 -31 -20 -25 -23 -29 -25 -20 -7 18 36
86 87 143 108 45 17 73 20 188 17 331 -8 301 -10 356 25 58 37 60 38 43 16z
m817 -156 c46 -67 110 -204 101 -214 -3 -2 -20 16 -38 41 -35 49 -40 52 -70
36 -17 -10 -19 -7 -19 32 0 24 -9 63 -20 87 -23 51 -24 55 -8 45 7 -4 0 13
-15 38 -58 100 -14 58 69 -65z m-1325 29 c-18 -14 -52 -51 -75 -83 -48 -65
-76 -92 -76 -74 0 7 -4 9 -10 6 -16 -10 -50 -14 -50 -6 0 4 5 12 12 19 20 20
-4 13 -51 -13 -24 -14 -46 -23 -50 -20 -13 14 21 42 81 65 35 14 99 49 142 78
78 52 142 75 77 28z m2613 -104 c-15 -13 -28 -22 -29 -20 -2 2 2 22 8 46 l11
43 18 -23 c17 -22 17 -24 -8 -46z m-2428 42 c42 -18 114 -64 99 -64 -6 0 -53
12 -105 26 -52 14 -116 26 -143 27 -40 2 -45 4 -30 15 24 17 133 15 179 -4z
m1024 -4 c0 -5 -8 -10 -17 -10 -15 0 -16 2 -3 10 19 12 20 12 20 0z m-790 -40
c30 -11 78 -20 105 -20 l50 -2 -30 -13 c-49 -23 -129 -18 -185 10 -27 13 -51
29 -55 35 -10 17 55 11 115 -10z m-407 -56 c-141 -106 -224 -142 -148 -63 27
27 34 38 20 34 -33 -11 97 66 135 81 84 31 82 15 -7 -52z m-647 11 c-4 -14
-11 -25 -16 -25 -13 0 -13 16 1 42 14 26 23 16 15 -17z m3299 26 c-42 -37
-165 -121 -178 -121 -22 0 -21 7 3 55 17 34 25 39 21 13 -2 -12 27 -10 34 2 8
13 96 59 115 60 8 0 10 -3 5 -9z m-2502 -37 c21 -14 37 -27 35 -30 -2 -2 -30
7 -61 20 -31 12 -54 26 -50 29 13 13 39 7 76 -19z m163 -24 c32 -16 77 -48 99
-70 l40 -42 -37 15 c-35 15 -160 85 -203 114 -40 27 39 14 101 -17z m169 -50
c43 -27 95 -52 114 -56 20 -3 43 -7 51 -8 9 -2 3 -8 -15 -15 -57 -23 -132 6
-212 82 -32 30 -41 47 -25 47 4 0 43 -22 87 -50z m-321 10 c23 -11 59 -36 81
-56 l40 -35 -30 6 c-16 4 -61 20 -99 37 -39 17 -88 33 -109 36 -37 5 -38 6
-22 19 27 19 93 16 139 -7z m2247 -61 c-3 -4 -16 -10 -28 -13 l-22 -7 22 40
22 41 6 -28 c3 -15 3 -30 0 -33z m-2026 -15 c108 -62 194 -128 171 -132 -42
-8 -170 71 -245 152 -35 37 -17 32 74 -20z m-501 15 c-27 -30 -68 -49 -104
-49 -16 0 -30 2 -30 4 0 2 -3 11 -6 20 -5 13 2 16 37 17 24 0 60 6 79 13 19 8
37 14 39 15 2 0 -4 -8 -15 -20z m2551 -26 c-27 -25 -111 -92 -185 -148 -74
-56 -141 -109 -149 -118 -18 -22 -32 -22 -24 1 4 9 -15 -1 -42 -25 -47 -40
-72 -50 -45 -18 16 19 8 19 -64 -5 -68 -23 -80 -24 -70 -9 5 9 -13 10 -67 5
-41 -4 -85 -10 -98 -13 -16 -4 -22 -2 -17 5 6 11 73 26 245 57 55 9 117 28
151 45 66 33 236 147 328 220 79 63 104 65 37 3z m-135 -18 c0 -40 -3 -47 -26
-56 -15 -5 -28 -8 -30 -6 -4 3 48 107 54 107 1 0 2 -20 2 -45z m-2593 13 c17
-14 7 -28 -21 -28 -15 0 -27 9 -35 26 -11 26 -11 26 16 19 15 -3 33 -11 40
-17z m-13 -69 c19 -18 38 -10 31 12 -7 21 -5 22 61 16 38 -4 89 -2 114 2 25 5
47 8 49 5 2 -2 -20 -15 -50 -29 -96 -44 -269 -31 -298 23 -6 12 -11 23 -11 27
0 6 89 -41 104 -56z m570 18 c64 -83 82 -215 46 -328 -22 -68 -66 -156 -55
-109 31 129 36 173 33 247 -4 69 -10 93 -39 153 -38 75 -29 95 15 37z m1906
-29 c-5 -24 -6 -46 -4 -50 6 -10 -30 -28 -55 -28 -19 0 -17 6 20 60 22 33 42
60 44 60 1 0 -1 -19 -5 -42z m-2140 17 c0 -20 46 -30 65 -15 9 8 15 8 15 2 0
-11 -48 -52 -59 -52 -3 1 -26 19 -51 40 l-45 40 38 0 c26 0 37 -4 37 -15z
m615 -49 c10 -76 -13 -147 -77 -234 -28 -40 -54 -68 -57 -63 -4 5 -20 -17 -37
-48 l-30 -58 33 13 c41 18 42 6 2 -32 -43 -40 -80 -107 -81 -144 -1 -17 8 -44
20 -60 12 -16 22 -32 22 -35 0 -15 -63 30 -79 56 -12 20 -20 26 -23 17 -3 -7
-10 4 -17 25 -18 53 -2 92 64 157 47 47 59 66 82 137 18 56 43 104 79 152 32
43 57 91 65 121 7 28 16 50 20 50 4 0 11 -24 14 -54z m-1015 -5 c0 -9 -14 -45
-30 -79 -17 -35 -30 -74 -30 -86 0 -32 -33 -60 -60 -51 -21 7 -22 7 -2 28 28
32 79 137 87 179 5 26 11 35 21 31 8 -3 14 -13 14 -22z m-333 2 c-4 -3 -7 0
-7 7 0 7 3 10 7 7 3 -4 3 -10 0 -14z m2723 -46 c-10 -51 -13 -55 -43 -60 -18
-2 -34 -3 -36 -1 -2 2 11 20 28 40 18 20 37 47 43 60 17 38 21 21 8 -39z
m-2470 49 c0 -2 -25 -23 -56 -46 -34 -26 -73 -68 -100 -110 -42 -65 -95 -120
-115 -120 -5 0 6 14 26 32 20 17 45 50 57 72 11 23 31 56 45 74 31 42 143 118
143 98z m560 -20 c-10 -13 -9 -18 3 -31 9 -8 24 -15 34 -16 11 0 6 -6 -16 -15
-29 -13 -36 -13 -57 1 -33 21 -30 39 9 63 36 21 46 20 27 -2z m424 -43 c-10
-7 -21 -13 -24 -13 -12 0 -90 60 -90 69 0 4 30 -3 66 -18 58 -22 63 -27 48
-38z m-774 22 c13 -14 21 -27 18 -30 -3 -3 -11 1 -18 10 -7 9 -29 15 -51 15
-28 0 -39 4 -39 15 0 26 63 19 90 -10z m2100 -44 c-15 -31 -26 -41 -45 -41
-14 0 -25 3 -25 6 0 8 84 83 88 79 2 -2 -6 -21 -18 -44z m-119 -10 c-26 -50
-71 -80 -71 -46 0 15 79 99 87 91 2 -2 -5 -22 -16 -45z m-1518 24 c-3 -9 -22
-27 -42 -41 -30 -22 -32 -25 -11 -19 l25 6 -23 -14 c-12 -7 -20 -16 -17 -19 4
-4 2 -16 -5 -27 -7 -14 -7 -21 0 -21 5 0 10 -4 10 -10 0 -5 -13 -10 -30 -10
-35 0 -74 34 -66 57 3 8 6 25 6 38 0 19 6 23 46 28 26 2 58 14 73 25 32 25 42
27 34 7z m-537 -19 c10 -8 15 -18 11 -22 -4 -4 -17 2 -29 14 -25 25 -13 30 18
8z m1975 -4 c-21 -40 -96 -83 -143 -82 -15 1 3 14 54 40 42 22 79 44 83 50 11
17 16 11 6 -8z m-1187 -13 c-8 -14 -24 -10 -24 6 0 9 6 12 15 9 8 -4 12 -10 9
-15z m-929 1 c-3 -5 -14 -10 -23 -10 -15 0 -15 2 -2 10 20 13 33 13 25 0z
m1270 -149 c-16 -49 -59 -97 -110 -124 -27 -15 -28 -16 -7 -17 31 0 92 26 119
52 33 30 28 9 -8 -40 -19 -26 -51 -51 -87 -69 l-57 -28 60 -5 60 -6 -45 -22
c-53 -26 -60 -26 -128 -8 -55 14 -66 7 -30 -18 22 -16 22 -16 2 -16 -23 0 -48
24 -58 55 -8 26 26 82 59 97 14 6 25 19 25 28 0 12 18 25 55 40 31 12 67 31
81 42 33 26 63 87 72 145 l7 48 3 -53 c2 -30 -4 -74 -13 -101z m474 120 c-21
-28 -74 -59 -84 -49 -5 4 93 78 102 78 2 0 -6 -13 -18 -29z m171 15 c0 -10
-69 -46 -86 -46 -12 1 -2 10 26 25 44 24 60 29 60 21z m-483 -41 c-26 -23 -47
-32 -47 -20 0 6 62 45 70 45 3 -1 -8 -12 -23 -25z m150 0 c-15 -14 -36 -25
-45 -25 -10 0 -1 11 23 25 51 31 58 31 22 0z m374 -65 l-23 -20 55 0 c61 0
125 -20 164 -50 29 -23 24 -24 -28 -10 -20 6 -46 7 -58 2 -20 -7 -19 -9 14
-21 38 -14 48 -32 13 -24 -17 4 -12 -3 17 -24 62 -46 111 -106 150 -184 20
-39 34 -73 32 -75 -2 -2 -20 22 -40 53 -20 32 -48 72 -62 88 -20 24 -17 14 15
-49 42 -85 45 -108 8 -60 -13 16 -40 48 -61 72 -35 40 -37 42 -31 17 10 -39
-10 -25 -47 33 l-29 46 -1 -35 -1 -34 -19 40 c-10 22 -19 52 -19 68 0 34 -10
34 -49 1 -31 -26 -40 -19 -20 17 9 18 8 19 -9 10 -10 -5 -24 -17 -32 -25 -7
-9 -17 -16 -21 -16 -15 0 19 57 43 74 22 16 22 16 -10 16 -17 0 -55 -9 -84
-20 -69 -26 -76 -25 -48 5 31 33 20 32 -52 -5 -50 -26 -57 -27 -48 -11 5 11
10 22 10 25 0 8 -83 -29 -129 -58 -22 -15 -41 -24 -41 -21 0 3 9 24 20 45 26
50 16 51 -73 6 -64 -32 -67 -33 -61 -13 10 33 34 80 52 100 25 29 33 19 12
-15 -28 -46 -25 -53 13 -25 36 28 128 70 135 62 3 -2 0 -10 -5 -17 -6 -7 -14
-24 -18 -37 l-7 -24 28 20 c30 21 149 83 159 83 4 0 -3 -13 -14 -29 -30 -42
-26 -45 18 -16 21 14 69 32 107 39 96 19 103 19 75 -4z m-1261 2 c0 -5 -16
-17 -35 -28 -29 -15 -32 -20 -18 -25 13 -5 7 -10 -24 -19 -42 -13 -45 -17 -46
-68 -1 -46 -100 -39 -124 8 -11 22 -9 31 16 75 21 36 34 49 47 47 62 -12 104
-11 139 2 22 8 41 15 43 15 1 1 2 -3 2 -7z m700 -19 c-1 -5 -12 -21 -25 -38
-30 -36 -34 -19 -4 19 21 26 29 32 29 19z m-893 -180 c25 -3 57 2 92 16 30 11
57 19 59 16 2 -2 -16 -18 -40 -36 -23 -17 -35 -29 -25 -26 31 11 18 -2 -23
-23 -36 -18 -39 -23 -29 -41 8 -16 17 -19 35 -15 33 9 30 -1 -8 -24 -39 -23
-78 -25 -116 -6 -52 27 -61 73 -30 155 8 23 9 23 27 6 11 -9 37 -19 58 -22z
m464 -9 c-11 -15 -21 -21 -21 -14 0 15 31 52 38 46 2 -3 -5 -17 -17 -32z m762
-122 c-10 -14 -30 -32 -43 -41 -19 -12 -17 -6 13 28 20 25 37 49 38 55 0 6 3
5 6 -3 3 -7 -3 -25 -14 -39z m266 -118 c40 -32 80 -52 139 -70 73 -23 86 -30
109 -65 14 -22 24 -42 21 -44 -2 -3 -19 6 -37 19 -18 14 -63 34 -100 45 -78
24 -144 73 -202 151 -35 47 -69 110 -69 129 0 3 19 -23 41 -58 23 -34 67 -83
98 -107z m-1339 106 c0 -9 -38 -39 -96 -77 -11 -7 -1 -5 21 3 35 14 38 14 26
0 -7 -8 -21 -18 -32 -21 -21 -7 -23 -13 -10 -34 8 -13 14 -13 38 -2 l28 13
-30 -32 c-27 -28 -34 -31 -69 -25 -68 10 -94 36 -110 111 l-7 32 63 -5 c52 -3
71 0 113 21 57 28 65 30 65 16z m716 -38 c-18 -35 -74 -84 -87 -77 -8 5 91
114 99 109 2 -1 -3 -16 -12 -32z m-351 18 c3 -5 4 -10 1 -10 -3 0 -8 5 -11 10
-3 6 -4 10 -1 10 3 0 8 -4 11 -10z m188 -59 c16 -14 33 -35 39 -45 10 -18 8
-18 -18 2 -16 11 -47 40 -69 63 -37 39 -38 41 -10 25 17 -10 43 -30 58 -45z
m1322 29 c18 -20 17 -20 -8 -20 -14 0 -38 -11 -54 -24 -39 -32 -73 -49 -73
-36 0 5 5 10 10 10 6 0 25 20 42 45 35 49 55 55 83 25z m-650 -11 c5 -15 2
-25 -8 -31 -9 -5 -23 -15 -31 -23 -20 -21 -26 -19 -26 8 0 12 -5 29 -10 37 -7
11 -4 17 13 22 40 11 56 8 62 -13z m1213 -66 c-24 -26 -27 -27 -48 -13 -12 8
-10 14 14 39 27 28 30 29 42 13 11 -14 9 -21 -8 -39z m-1533 -3 c8 -16 29 -46
47 -65 17 -20 28 -38 25 -41 -6 -6 -127 105 -127 116 0 5 8 11 18 13 9 3 18 5
19 6 1 0 9 -12 18 -29z m-626 -35 c40 14 45 13 84 -7 41 -21 79 -32 167 -47
25 -5 53 -12 63 -16 17 -7 17 -8 -2 -22 -15 -10 -26 -11 -40 -3 -28 14 -36 13
-21 -5 16 -20 11 -19 -41 5 -24 11 -57 20 -73 20 l-29 0 40 -29 c46 -33 94
-91 86 -104 -3 -4 -13 -1 -22 7 -10 9 -24 16 -32 16 -8 0 -20 9 -27 21 -10 15
-16 18 -26 10 -11 -9 -15 -4 -20 21 -5 25 -9 30 -16 18 -7 -11 -11 -9 -19 13
-14 37 -14 37 12 38 20 1 19 2 -8 14 -16 8 -43 14 -58 15 -26 0 -27 -1 -13
-16 24 -23 19 -37 -6 -20 -29 21 -57 5 -51 -29 3 -14 0 -32 -7 -40 -11 -13
-10 -14 5 -9 15 6 16 4 5 -15 -18 -34 -34 -20 -41 35 -7 61 -3 73 29 85 l26
10 -44 26 c-42 26 -44 26 -73 9 -38 -21 -43 -16 -16 18 l21 26 53 -30 c51 -29
53 -30 94 -15z m-193 -36 c3 -5 -6 -9 -19 -9 -28 0 -52 -23 -42 -40 12 -20 -6
-90 -27 -101 -18 -10 -19 -8 -12 13 4 12 7 51 5 85 -1 49 2 64 15 71 18 10 69
-2 80 -19z m71 9 c7 -13 6 -58 -3 -89 -2 -9 -16 -21 -29 -27 -25 -12 -33 -5
-16 14 15 15 25 58 12 50 -14 -9 -14 19 -1 45 12 22 25 24 37 7z m1838 -97
c13 -27 35 -57 47 -66 l23 -16 -25 3 c-24 3 -58 51 -75 106 -11 38 3 24 30
-27z m297 18 c5 -3 -2 -19 -16 -35 -20 -23 -25 -25 -26 -11 0 9 -8 17 -17 17
-13 0 -10 7 12 30 20 21 31 27 34 18 2 -7 8 -16 13 -19z m-132 -93 c0 -5 -9
-1 -20 9 -11 10 -20 25 -20 34 0 12 6 9 20 -9 11 -14 20 -29 20 -34z m-2020 2
c0 -25 -3 -29 -10 -18 -13 20 -13 50 0 50 6 0 10 -15 10 -32z m110 -21 c0 -18
-2 -19 -10 -7 -13 20 -13 43 0 35 6 -3 10 -16 10 -28z m-240 -8 c0 -11 -4 -17
-10 -14 -5 3 -10 13 -10 21 0 8 5 14 10 14 6 0 10 -9 10 -21z m-55 -66 c-42
-36 -42 -36 28 -17 30 9 19 -2 -59 -61 -42 -32 -73 -51 -69 -44 5 8 -4 3 -19
-11 -45 -41 -85 -135 -100 -237 -8 -50 -21 -102 -30 -114 -14 -21 -14 -25 -1
-46 9 -13 11 -23 6 -23 -19 0 -31 37 -22 67 5 15 12 47 14 71 4 34 3 41 -8 32
-7 -6 -18 -30 -24 -54 -6 -24 -18 -46 -26 -50 -13 -4 -14 -2 -5 14 5 10 10 29
10 42 0 13 11 39 25 58 31 42 26 49 -14 20 -24 -17 -31 -29 -31 -55 0 -19 -5
-37 -11 -41 -9 -5 -10 6 -6 41 4 42 11 54 51 89 25 23 60 68 77 101 60 117
219 290 243 265 8 -9 1 -21 -29 -47z m180 27 c16 -17 16 -20 3 -15 -9 4 -19
13 -22 21 -7 19 -2 18 19 -6z m1991 -11 c53 -17 93 -33 90 -36 -3 -3 -36 4
-75 16 -38 11 -76 21 -84 21 -8 0 -20 7 -27 15 -17 20 -15 20 96 -16z m-2066
-38 c-18 -34 -30 -24 -12 11 8 18 17 27 19 21 3 -7 -1 -21 -7 -32z m1500 -14
c0 -13 -29 12 -42 37 -10 19 -8 18 16 -3 14 -14 26 -29 26 -34z m433 -42 c8
-18 -11 -31 -25 -17 -11 11 -3 32 12 32 4 0 10 -7 13 -15z m-143 -94 c0 -11 8
-21 17 -23 12 -2 3 -13 -32 -40 -46 -34 -50 -35 -53 -16 -3 14 -9 18 -22 15
-28 -7 -14 14 33 50 50 38 57 39 57 14z m-1960 -96 c0 -7 12 -28 27 -46 29
-34 26 -35 -25 -4 -18 12 -30 26 -27 33 3 8 5 20 5 28 0 9 5 12 10 9 6 -3 10
-12 10 -20z m-251 -38 c-20 -19 -40 -43 -43 -54 -4 -12 -20 -26 -36 -33 -20
-8 -33 -23 -38 -43 -10 -39 -31 -48 -24 -11 5 29 142 174 164 174 7 0 -3 -15
-23 -33z m1956 -41 c12 -12 12 -16 -1 -27 -18 -15 -40 2 -31 25 8 20 14 20 32
2z m-1206 -82 l53 -24 -23 -19 c-22 -17 -22 -21 -9 -45 12 -23 12 -29 -1 -41
-12 -12 -21 -11 -66 5 -29 10 -78 30 -110 45 l-57 26 35 17 c35 17 42 43 24
85 -7 16 -3 16 46 -3 30 -12 78 -32 108 -46z m1135 39 c4 -9 1 -20 -6 -25 -18
-11 -22 -10 -53 6 l-26 14 28 10 c40 15 50 14 57 -5z m-239 -62 c-3 -5 0 -13
6 -17 12 -7 -6 -24 -27 -24 -13 0 -25 35 -16 44 9 10 44 7 37 -3z m-310 -21
c3 -5 1 -10 -4 -10 -6 0 -11 -9 -11 -20 0 -11 5 -20 10 -20 6 0 10 -4 10 -10
0 -11 -172 -14 -183 -3 -4 3 1 12 10 18 14 10 15 16 5 27 -6 8 -9 18 -5 21 10
11 161 8 168 -3z m-1310 -128 c-5 -12 -11 -5 -21 28 -20 65 -16 82 8 32 11
-24 16 -51 13 -60z m94 18 c0 -8 -8 1 -19 20 -11 19 -19 42 -19 50 0 8 8 -1
19 -20 11 -19 19 -42 19 -50z" />
    <!-- yeux -->
    <path d="M741 8035 c-19 -13 -38 -22 -43 -19 -5 4 -16 -4 -25 -16 -8 -12 -21
-19 -29 -16 -7 3 -16 -4 -20 -17 -4 -12 -14 -27 -23 -34 -9 -6 -13 -14 -10
-17 9 -10 131 21 144 36 10 11 48 109 42 108 -1 -1 -17 -12 -36 -25z m-41 -75
c-12 -23 -30 -27 -30 -7 0 17 10 27 27 27 11 0 11 -5 3 -20z" />
    <!-- narinne -->
    <path d="M521 7843 c-9 -15 -12 -15 -20 -4 -7 11 -13 9 -30 -8 -11 -11 -21
-26 -21 -33 0 -9 3 -9 12 0 7 7 19 12 28 12 19 0 57 37 48 46 -4 3 -11 -3 -17
-13z" />
  </g>
</svg>